<?xml version="1.0" encoding="iso-8859-1"?>
<!-- Generator: Adobe Illustrator 19.1.0, SVG Export Plug-In . SVG Version: 6.00 Build 0)  -->
<svg version="1.1" xmlns="http://www.w3.org/2000/svg" xmlns:xlink="http://www.w3.org/1999/xlink" x="0px" y="0px"
	 viewBox="0 0 693.042 254.432" style="enable-background:new 0 0 693.042 254.432;" xml:space="preserve">
<g id="design-co">
	<path style="fill:#414042;" d="M119.156,240.539c4.242-1.532,4.115-5.037,4.085-8.585c-0.059-6.939-0.071-13.879,0.005-20.817
		c0.037-3.406-0.109-6.584-4.857-7.639c1.029-0.4,1.408-0.679,1.783-0.674c7.041,0.095,14.113-0.152,21.114,0.443
		c8.397,0.713,14.593,6.746,16.328,14.904c1.737,8.167-1.207,15.908-7.945,19.671c-2.475,1.382-5.445,2.444-8.241,2.577
		C134.019,240.772,126.582,240.539,119.156,240.539z M128.534,204.646c0,10.212-0.097,20.068,0.107,29.918
		c0.03,1.443,1.15,3.556,2.363,4.158c4.643,2.307,13.822-0.272,17.296-4.452c5.311-6.391,4.762-18.932-0.928-25.036
		C142.156,203.639,135.528,204.429,128.534,204.646z M525.973,241.684c-11.583,0.001-20.025-8.52-19.981-20.168
		c0.044-11.525,8.517-19.652,20.469-19.633c11.521,0.018,20.031,8.442,20.009,19.808
		C546.448,233.384,537.94,241.683,525.973,241.684z M541.166,221.77c-1.03-3.597-1.592-7.418-3.179-10.749
		c-4.195-8.8-15.023-10.138-21.572-2.935c-5.824,6.404-6.044,20.025-0.436,26.967c5.437,6.73,14.221,6.932,19.955,0.418
		C539.328,231.615,540.474,226.961,541.166,221.77z M336.456,233.82c0.026-3.78-0.448-7.825,4.62-9.273c-5.04,0-10.081,0-15.121,0
		c6.031,0.801,5.448,5.284,5.476,9.401c0.002,0.325-0.009,0.65-0.003,0.975c0.058,2.944-1.617,4.346-4.319,4.697
		c-4.584,0.595-8.547-0.719-11.838-4.016c-6.431-6.443-7.685-18.604-2.599-26.18c2.812-4.187,6.76-6.44,11.873-5.821
		c5.232,0.633,9.08,3.277,10.782,8.522c0.17,0.524,0.506,0.994,0.765,1.489c0.167-0.042,0.334-0.084,0.501-0.126
		c0-3.616,0-7.232,0-10.069c-2.716-0.271-5.018-0.617-7.329-0.706c-3.737-0.144-7.647-0.841-11.189-0.025
		c-9.257,2.135-14.782,10.721-14.415,21.244c0.314,9.004,5.744,15.581,15.249,16.992c5.572,0.827,11.368,0.151,17.544,0.151
		C336.453,238.336,336.44,236.078,336.456,233.82z M387.965,203.126c4.555,1.081,4.359,4.544,4.356,7.902
		c-0.004,4.658-0.001,9.315-0.001,13.973c0,1.973,0,3.946,0,5.919c-7.241-7.99-13.748-16.074-20.282-24.135
		c-3.421-4.221-7.307-5.222-13.473-3.038c4.812,0.662,5.986,3.768,5.983,7.684c-0.005,7.147,0.076,14.295-0.026,21.441
		c-0.047,3.277-0.174,6.715-5.375,6.939c0.278,0.265,0.555,0.53,0.833,0.794c3.777,0,7.554,0,10.786,0
		c-1.349-1.616-3.848-3.22-3.927-4.936c-0.405-8.809-0.188-17.646-0.188-27.193c4.802,5.855,9.227,11.238,13.638,16.633
		c4.38,5.356,8.745,10.725,13.117,16.088c0.318-0.161,0.635-0.322,0.953-0.482c0-1.155,0-2.309,0-3.464
		c0.001-8.557-0.052-17.115,0.029-25.671c0.033-3.474-0.095-7.211,4.705-8.452C395.385,203.126,391.675,203.126,387.965,203.126z
		 M188.114,204.742c3.263,0,6.281-0.008,9.299,0.002c3.283,0.011,6.591-0.008,7.975,4.007c0-1.913,0-3.826,0-5.642
		c-9.185,0-18.083,0-26.98,0c4.201,1.32,4.29,4.577,4.274,7.952c-0.033,6.61,0.007,13.219-0.013,19.829
		c-0.011,3.78,0.762,7.923-4.133,9.823c9.096,0,18.192,0,27.363,0c0.516-2.412,0.984-4.602,1.358-6.346
		c-2.648,1.536-5.029,3.571-7.762,4.318c-2.727,0.745-5.822,0.377-8.723,0.123c-1.007-0.088-2.701-1.249-2.742-1.994
		c-0.255-4.592-0.128-9.206-0.128-14.375c5.403,1.687,11.604-2.726,15.305,4.899c0-3.941,0-6.985,0-10.028
		c-1.384,3.536-4.099,3.658-7.077,3.503c-2.583-0.134-5.178-0.028-8.015-0.028C188.114,215.25,188.114,210.129,188.114,204.742z
		 M476.953,202.775c-3.65-0.211-7.425-1.145-10.928-0.528c-16.253,2.861-19.165,21.986-12.94,31.491
		c6.572,10.036,22.722,10.939,29.724,1.645c0.842-1.117,1.308-2.517,1.948-3.785c-0.338-0.179-0.677-0.357-1.015-0.536
		c-0.688,0.887-1.383,1.77-2.064,2.663c-5.601,7.343-16.205,7.345-21.76,0.001c-4.725-6.246-5.182-17.822-0.88-24.335
		c2.808-4.252,6.909-6.167,11.926-5.882c5.312,0.303,8.841,3.129,10.626,8.149c0.247,0.694,0.642,1.336,0.969,2.002
		c0.219-0.066,0.439-0.131,0.658-0.197c0-3.578,0-7.156,0-10.359C480.873,202.981,478.913,202.888,476.953,202.775z
		 M242.321,202.203c-8.517-1.886-14.309,2.995-13.516,11.471c0.342,3.662,2.602,6.064,5.441,8.057
		c3.184,2.235,6.515,4.291,9.509,6.756c2.43,2,3.403,4.748,1.883,7.869c-1.27,2.606-4.928,4.42-7.995,3.769
		c-3.612-0.766-6.327-2.734-7.473-6.438c-0.282-0.912-0.541-1.831-0.81-2.747c-0.219,0.069-0.437,0.139-0.656,0.208
		c0,3.288,0,6.576,0,8.822c2.745,0.484,5.007,0.755,7.203,1.294c8.614,2.114,15.402-3.285,14.626-11.686
		c-0.327-3.538-2.367-5.97-5.099-7.919c-3.606-2.573-7.414-4.888-10.853-7.664c-2.228-1.799-3.153-4.418-1.687-7.3
		c1.193-2.345,4.68-3.739,7.6-3.076c3.214,0.73,5.387,2.629,6.441,5.783c0.193,0.579,0.504,1.118,0.761,1.675
		c0.189-0.058,0.378-0.116,0.566-0.174c0-2.738,0-5.477,0-7.753C246.161,202.822,244.217,202.623,242.321,202.203z M282.916,239.995
		c-4.254-0.837-4.545-3.888-4.526-7.191c0.04-7.037,0.032-14.074,0.004-21.11c-0.014-3.501-0.235-7.062,4.126-8.648
		c-4.414,0-8.828,0-13.243,0c4.378,1.644,3.959,5.292,3.968,8.716c0.017,6.062,0.094,12.127-0.027,18.187
		c-0.079,3.959,1.322,8.594-4.016,10.768c4.431,0,8.861,0,13.292,0C282.636,240.476,282.776,240.236,282.916,239.995z
		 M562.937,239.327c-0.023-1.068-1.588-2.676-2.768-3.014c-1.85-0.53-3.32,0.622-3.425,2.775c-0.101,2.078,0.987,3.174,3.842,3.864
		C561.436,241.742,562.962,240.518,562.937,239.327z"/>
</g>
<g id="fanciful">
	<path style="fill:#414042;" d="M466.343,89.197c13.867,1.612,27.076,0.045,39.942-4.145c5.32-1.732,10.368-4.299,15.538-6.489
		c0.993-0.421,1.952-1.1,2.977-1.216c0.993-0.112,2.05,0.349,3.079,0.558c-0.243,0.977-0.296,2.057-0.761,2.914
		c-2.161,3.981-4.855,7.727-6.572,11.882c-2.512,6.076,0.417,9.467,6.994,8.746c5.807-0.637,10.826-3.158,15.117-6.936
		c3.154-2.776,5.953-5.973,8.762-9.116c1.049-1.174,1.677-2.726,2.497-4.105c0.61,0.366,1.22,0.732,1.83,1.098
		c0.12,1.499,0.39,3.003,0.336,4.495c-0.344,9.457,3.637,12.862,13.026,11.006c1.583-0.313,3.165-0.708,4.686-1.242
		c11.249-3.947,21.098-10.376,30.825-17.11c3.876-2.683,5.935-5.906,7.192-10.445c4.985-17.997,11.729-35.334,21.096-51.556
		c1.563-2.706,3.35-5.34,5.411-7.673c0.906-1.026,3.022-1.956,4.109-1.573c1.054,0.372,2.243,2.589,2.074,3.816
		c-0.796,5.756-1.551,11.597-3.217,17.138c-4.618,15.358-11.612,29.611-21.325,42.446c-1.305,1.724-2.654,3.472-4.255,4.906
		c-7.16,6.412-6.115,14.952-6.101,23.19c0.003,1.985,1.419,2.75,3.442,2.206c10.32-2.777,20.894-4.845,30.911-8.458
		c12.068-4.353,23.661-10.021,35.474-15.088c1.899-0.814,4.511-2.786,5.755-0.446c1.324,2.491-1.622,3.855-3.612,4.811
		c-21.052,10.115-43.013,17.541-65.94,22.054c-1.267,0.249-2.593,0.178-3.887,0.305c-2.749,0.27-4.712-1.08-4.837-3.639
		c-0.23-4.709,0.076-9.449,0.268-14.172c0.056-1.374,0.482-2.733,0.836-4.616c-4.216,2.416-7.907,4.852-11.862,6.732
		c-8.669,4.121-17.463,7.981-26.233,11.887c-0.965,0.43-2.101,0.495-3.166,0.68c-7.975,1.389-13.021-2.061-15.017-10.766
		c-1.822,1.477-3.464,2.77-5.065,4.112c-5.455,4.568-11.177,8.629-18.558,9.306c-1.703,0.156-3.475,0.108-5.158-0.181
		c-5.23-0.899-7.902-4.559-6.975-9.774c0.54-3.04,1.57-5.993,2.481-9.362c-18.371,6.85-37.032,9.465-56.847,6.333
		c-2.009,7.792-4.328,15.999-6.22,24.303c-2.813,12.348-5.325,24.764-7.966,37.152c-0.045,0.212-0.069,0.435-0.154,0.63
		c-0.845,1.946-0.616,5.04-3.613,4.751c-0.592-0.057-1.542-4.062-1.102-5.963c5.096-22.055,6.236-44.581,8.254-67.002
		c0.084-0.936,0.011-1.885,0.011-3.246c-6.256,2.305-12.128,4.453-17.989,6.63c-15.415,5.725-30.877,11.379-47.129,14.218
		c-5.917,1.034-12.063,1.337-18.073,1.12c-9.278-0.334-13.593-6.152-12.076-15.241c0.105-0.631,0.13-1.275,0.247-2.473
		c-1.415,0.848-2.464,1.474-3.511,2.105c-15.824,9.54-32.685,15.947-51.385,16.112c-4.565,0.04-9.312-0.79-13.674-2.173
		c-6.347-2.013-8.116-5.638-7.239-12.27c0.08-0.604,0.07-1.219,0.096-1.735c-6.353,3.191-12.42,6.852-18.934,9.336
		c-6.302,2.403-12.974,4.337-19.646,5.162c-12.615,1.559-22.912-3.223-30.352-13.672c-1.75-2.458-3.225-5.111-5.155-8.199
		c-6.502,3.885-12.94,7.831-19.475,11.609c-6.543,3.783-13.077,7.613-19.841,10.968c-2.273,1.128-5.242,1.185-7.886,1.153
		c-3.39-0.041-4.662-1.923-3.723-5.214c0.726-2.544,1.882-4.965,3.009-7.858c-3.963,2.399-7.571,4.486-11.082,6.725
		c-15.426,9.84-30.731,7.382-45.822-0.656c-2.602-1.386-4.284-1.328-6.679,0.152c-3.849,2.38-7.911,4.455-12.033,6.331
		c-1.303,0.593-3.616,0.743-4.491-0.021c-0.818-0.714-0.898-3.162-0.334-4.408c2.037-4.497,4.484-8.81,6.773-13.187
		c-16.887,5.654-34.438,7.821-52.936,4.86c-2.235,8.838-4.737,18.012-6.852,27.273c-2.603,11.396-4.867,22.87-7.327,34.3
		c-0.293,1.362-0.738,2.747-1.417,3.95c-0.412,0.73-1.41,1.129-2.145,1.676c-0.524-0.863-1.342-1.676-1.499-2.601
		c-0.212-1.244-0.126-2.631,0.197-3.861c4.24-16.122,4.978-32.731,6.836-49.178c0.851-7.529,1.229-15.111,1.785-22.672
		c0.122-1.662,0.401-3.13,2.53-2.949c2.26,0.192,2.404,1.716,2.131,3.535c-1.718,11.439-3.408,22.883-5.107,34.325
		c0.258,0.056,0.517,0.112,0.775,0.169c1.489-5.454,2.933-10.921,4.475-16.36c6.085-21.465,12.458-42.859,22.257-62.977
		c3.388-6.955,7.866-13.418,12.236-19.841c2.473-3.634,6.236-5.994,10.62-7.041c3.122-0.746,4.788,0.678,4.083,3.772
		c-0.669,2.935-1.496,5.94-2.879,8.588C62.81,39.764,53.288,57.629,43.775,75.499c-2.381,4.473-4.907,8.868-7.511,13.56
		c9.164,1.561,17.93,0.604,26.674-0.729c10.589-1.614,20.429-5.427,29.97-10.193c1.38-0.689,4.236-1.003,4.79-0.269
		c1.497,1.985-0.592,3.194-1.995,4.632c-4.512,4.627-8.854,9.427-13.094,14.306c-1.054,1.213-1.479,2.974-2.194,4.483
		c0.242,0.248,0.483,0.495,0.725,0.743c4.212-2.713,8.573-5.225,12.585-8.207c2.837-2.109,5.065-2.289,8.172-0.414
		c6.782,4.092,13.952,7.39,21.984,8.357c5.099,0.614,9.917-0.193,14.509-2.428c10.237-4.981,19.217-11.685,27.136-19.84
		c0.151-0.155,0.252-0.419,0.429-0.479c1.382-0.473,2.778-0.908,4.169-1.354c-0.076,1.547,0.368,3.397-0.324,4.586
		c-2.28,3.921-5.057,7.549-7.471,11.398c-1.422,2.266-2.518,4.737-3.76,7.116c0.137,0.331,0.274,0.662,0.411,0.993
		c2.106-0.339,4.416-0.239,6.28-1.1c5.291-2.444,10.504-5.1,15.556-8.006c7.691-4.424,15.171-9.215,22.84-13.679
		c3.931-2.288,4.58-1.933,6.874,1.902c4.36,7.29,9.688,13.587,17.781,16.977c9.463,3.965,18.702,2.145,27.812-1.23
		c10.366-3.84,19.444-9.868,28.038-16.734c2.518-2.011,5.32-3.762,8.225-5.14c1.053-0.499,3.612,0.001,4.047,0.814
		c1.027,1.917-0.541,2.865-2.4,3.635c-5.553,2.3-9.726,5.934-10.674,12.316c-0.582,3.921,0.125,6.304,3.907,7.502
		c4.766,1.509,9.884,2.881,14.808,2.751c21.125-0.558,39.503-8.562,55.654-21.97c0.333-0.277,0.644-0.582,0.957-0.881
		c1.352-1.295,2.909-2.944,4.742-1.459c2.089,1.692,0.245,3.373-0.655,5.072c-1.309,2.469-2.627,5.009-3.391,7.676
		c-1.472,5.133,0.588,8.612,5.699,10.277c5.976,1.946,12.037,1.285,18.013,0.194c22.925-4.186,44.495-12.409,65.553-22.165
		c1.931-0.894,4.224-1.007,6.348-1.482c0.109,2.148,0.546,4.338,0.273,6.436c-1.397,10.717-2.977,21.41-3.8,32.26
		c1.495-5.491,2.938-10.997,4.493-16.471c6.094-21.462,12.462-42.858,22.27-62.972c3.391-6.953,7.877-13.412,12.251-19.832
		c2.406-3.532,6.068-5.845,10.328-6.923c3.456-0.875,5.328,0.676,4.238,4.075c-1.68,5.235-3.495,10.524-6.063,15.36
		c-10.107,19.032-20.531,37.895-30.835,56.823C467.592,86.808,467.058,87.844,466.343,89.197z M70.99,13.851
		c-5.006,2.061-9.362,5.447-12.637,11.29c-4.955,8.84-9.833,17.812-13.67,27.168c-4.613,11.249-8.101,22.959-12.076,34.469
		c0.365,0.149,0.73,0.299,1.095,0.448C46.579,63.35,59.687,39.589,70.99,13.851z M500.716,14.648
		c-0.262-0.22-0.524-0.44-0.786-0.659c-1.547,1.064-3.436,1.848-4.578,3.243c-3.886,4.746-8.034,9.398-11.124,14.649
		c-7.046,11.975-11.753,25.019-15.965,38.226c-1.782,5.585-3.505,11.188-5.255,16.784c0.26,0.102,0.519,0.203,0.779,0.305
		C476.697,63.317,489.788,39.529,500.716,14.648z M614.431,71.002c12.43-10.909,29.026-48.368,26.24-58.788
		C629.318,30.72,622.127,50.563,614.431,71.002z M376.974,48.948c-2.915,0-5.838-0.109-8.742,0.072
		c-0.789,0.049-2.232,1.153-2.153,1.468c0.266,1.067,0.875,2.51,1.735,2.855c1.202,0.482,2.758,0.207,4.146,0.08
		c8.596-0.786,17.19-1.593,25.777-2.466c1.591-0.162,3.23-0.468,4.681-1.093c0.583-0.251,0.719-1.541,1.059-2.358
		c-0.691-0.27-1.417-0.84-2.069-0.766c-8.124,0.923-16.238,1.94-24.354,2.933C377.027,49.432,377,49.19,376.974,48.948z"/>
</g>
<g id="accent-dot">
	<path style="fill:#9FDDED;" d="M376.974,48.948c-2.915,0-5.838-0.109-8.742,0.072c-0.789,0.049-2.232,1.153-2.153,1.468
		c0.266,1.067,0.875,2.51,1.735,2.855c1.202,0.482,2.758,0.207,4.146,0.08c8.596-0.786,17.19-1.593,25.777-2.466
		c1.591-0.162,3.23-0.468,4.681-1.093c0.583-0.251,0.719-1.541,1.059-2.358c-0.691-0.27-1.417-0.84-2.069-0.766
		c-8.124,0.923-16.238,1.94-24.354,2.933C377.027,49.432,377,49.19,376.974,48.948z M562.937,239.327
		c-0.023-1.068-1.588-2.676-2.768-3.014c-1.85-0.53-3.32,0.622-3.425,2.775c-0.101,2.078,0.987,3.174,3.842,3.864
		C561.436,241.742,562.962,240.518,562.937,239.327z"/>
</g>
</svg>
